<svg xmlns="http://www.w3.org/2000/svg" width="45.166" height="27.986" viewBox="0 0 45.166 27.986"><defs><style>.a{fill:#007ee5;}.b{fill:#00ebeb;}</style></defs><g transform="translate(-1323.952 -25.966)"><path class="a" d="M554.516,361.434h-.048a5.647,5.647,0,0,1-5.647-5.647h0a5.647,5.647,0,0,1,5.647-5.647h.048a5.647,5.647,0,0,1,5.647,5.647h0A5.647,5.647,0,0,1,554.516,361.434Z" transform="translate(808.955 -324.018)"/><path class="b" d="M463.846,405.7H463.8a5.647,5.647,0,0,1-5.647-5.647h0a5.647,5.647,0,0,1,5.647-5.647h.048a5.647,5.647,0,0,1,5.647,5.647h0A5.647,5.647,0,0,1,463.846,405.7Z" transform="translate(865.806 -351.775)"/><rect class="b" width="28.75" height="11.343" rx="5.671" transform="translate(1323.952 25.966)"/><path class="a" d="M530.9,400.011h0a5.673,5.673,0,0,1-5.673,5.671h-17.4a5.672,5.672,0,0,1-5.673-5.671h0a5.672,5.672,0,0,1,5.673-5.671h17.4A5.672,5.672,0,0,1,530.9,400.011Z" transform="translate(838.218 -351.731)"/></g></svg>